<?xml version="1.0" encoding="utf-8"?>
<!-- Generator: Adobe Illustrator 17.0.0, SVG Export Plug-In . SVG Version: 6.00 Build 0)  -->
<!DOCTYPE svg PUBLIC "-//W3C//DTD SVG 1.1//EN" "http://www.w3.org/Graphics/SVG/1.1/DTD/svg11.dtd">
<svg version="1.1" id="Layer_1" xmlns="http://www.w3.org/2000/svg" xmlns:xlink="http://www.w3.org/1999/xlink" x="0px" y="0px"
	 width="300px" height="300px" viewBox="0 0 300 300" enable-background="new 0 0 300 300" xml:space="preserve">
<g>
	<path fill="#E9E9E9" d="M83.77,213.92c-11.079-4.734-20.736-11.222-28.969-19.458c-8.236-8.232-14.723-17.89-19.458-28.969
		c-4.738-11.074-7.105-22.881-7.105-35.418c0-12.533,2.367-24.34,7.105-35.418c4.735-11.075,11.222-20.732,19.458-28.969
		c8.233-8.232,17.89-14.72,28.969-19.458c11.075-4.734,22.881-7.105,35.418-7.105c12.534,0,24.34,2.371,35.418,7.105
		c11.075,4.738,20.732,11.226,28.968,19.458c8.233,8.236,14.72,17.894,19.458,28.969c4.734,11.078,7.105,22.885,7.105,35.418
		c0,12.537-2.371,24.344-7.105,35.418c-4.738,11.079-11.226,20.736-19.458,28.969c-8.236,8.236-17.894,14.724-28.968,19.458
		c-11.079,4.738-22.885,7.105-35.418,7.105C106.651,221.025,94.845,218.658,83.77,213.92z M89.236,59.13
		c-9.33,4.011-17.491,9.511-24.487,16.507s-12.5,15.16-16.506,24.486c-4.011,9.329-6.013,19.314-6.013,29.952
		c0,10.642,2.002,20.627,6.013,29.953c4.007,9.329,9.51,17.49,16.506,24.486s15.157,12.499,24.487,16.507
		c9.326,4.01,19.311,6.012,29.952,6.012c10.638,0,20.623-2.002,29.953-6.012c9.326-4.008,17.49-9.511,24.486-16.507
		c6.997-6.996,12.496-15.157,16.507-24.486c4.007-9.326,6.012-19.312,6.012-29.953c0-10.638-2.005-20.623-6.012-29.952
		c-4.011-9.326-9.51-17.49-16.507-24.486c-6.996-6.996-15.161-12.496-24.486-16.507c-9.33-4.007-19.315-6.013-29.953-6.013
		C108.547,53.117,98.562,55.123,89.236,59.13z M71.745,117.832c-0.437,1.605-1.277,2.88-2.514,3.826
		c-1.24,0.949-2.661,1.421-4.263,1.421c-0.294,0-0.584-0.034-0.875-0.109c-0.294-0.071-0.584-0.109-0.875-0.109
		c-1.896-0.437-3.317-1.492-4.263-3.17c-0.95-1.674-1.203-3.46-0.765-5.356c2.914-11.075,8.417-20.66,16.506-28.75
		c8.089-8.089,17.671-13.589,28.75-16.507c1.893-0.437,3.679-0.181,5.356,0.766c1.674,0.949,2.733,2.371,3.17,4.264
		c0.438,1.896,0.181,3.683-0.765,5.356c-0.95,1.677-2.371,2.732-4.263,3.17c-8.602,2.187-16.069,6.449-22.41,12.79
		C78.195,101.763,73.932,109.233,71.745,117.832z M240.747,255.46c-0.875,0.362-1.749,0.547-2.624,0.547s-1.749-0.185-2.624-0.547
		c-0.875-0.365-1.677-0.84-2.405-1.421l-41.977-41.978c-1.312-1.455-1.968-3.132-1.968-5.028c0-1.893,0.656-3.569,1.968-5.028
		c1.455-1.312,3.132-1.968,5.028-1.968c1.893,0,3.57,0.656,5.029,1.968l41.977,41.978c1.312,1.458,1.967,3.136,1.967,5.028
		s-0.656,3.569-1.967,5.028C242.42,254.62,241.621,255.095,240.747,255.46z"/>
</g>
<path fill="#F15C25" d="M110.933,115.298c-1.959,0.003-3.609,0.672-4.947,2.01c-1.341,1.341-2.009,2.991-2.009,4.947
	c0,1.962,0.672,3.609,2.01,4.947l4.947,4.947l-4.947,4.947c-1.341,1.341-2.01,2.99-2.01,4.947c0,1.962,0.672,3.609,2.01,4.947
	c1.341,1.341,2.988,2.012,4.947,2.009c1.959,0.003,3.606-0.669,4.947-2.009l4.947-4.947l4.947,4.947
	c1.341,1.341,2.988,2.012,4.947,2.01c1.959,0.002,3.606-0.669,4.947-2.01c1.338-1.338,2.01-2.986,2.01-4.947
	c0-1.957-0.669-3.607-2.01-4.947l-4.947-4.947l4.947-4.947c1.338-1.338,2.01-2.986,2.009-4.947c0-1.957-0.669-3.606-2.009-4.947
	c-1.338-1.338-2.988-2.007-4.947-2.01c-1.959,0.002-3.608,0.672-4.947,2.01l-4.947,4.947l-4.947-4.947
	C114.542,115.97,112.892,115.301,110.933,115.298z"/>
</svg>
